<?xml version="1.0" encoding="UTF-8"?>
<!DOCTYPE svg PUBLIC "-//W3C//DTD SVG 1.1//EN" "http://www.w3.org/Graphics/SVG/1.1/DTD/svg11.dtd">
<!-- Creator: CorelDRAW -->
<svg xmlns="http://www.w3.org/2000/svg" xml:space="preserve" width="11in" height="8.5in" version="1.1" style="shape-rendering:geometricPrecision; text-rendering:geometricPrecision; image-rendering:optimizeQuality; fill-rule:evenodd; clip-rule:evenodd"
viewBox="0 0 11000 8500"
 xmlns:xlink="http://www.w3.org/1999/xlink"
 xmlns:xodm="http://www.corel.com/coreldraw/odm/2003">
 <defs>
  <style type="text/css">
   <![CDATA[
    .str4 {stroke:#201E1E;stroke-width:41.67;stroke-miterlimit:2.61313}
    .str0 {stroke:#201E1E;stroke-width:27.78;stroke-miterlimit:2.61313}
    .str3 {stroke:#201E1E;stroke-width:20.83;stroke-miterlimit:2.61313}
    .str1 {stroke:#FEFEFE;stroke-width:6.94;stroke-miterlimit:2.61313}
    .str2 {stroke:#201E1E;stroke-width:3;stroke-miterlimit:2.61313}
    .fil0 {fill:#FEFEFE}
    .fil2 {fill:#201E1E}
    .fil1 {fill:#201E1E;fill-rule:nonzero}
   ]]>
  </style>
 </defs>
 <g id="Layer_x0020_1">
  <metadata id="CorelCorpID_0Corel-Layer"/>
  <g id="_1934481381888">
   <rect class="fil0 str0" x="892.61" y="3157.78" width="9214.78" height="2184.44"/>
   <g>
    <path class="fil0 str1" d="M2691.78 3353.76c494.98,0 896.24,401.26 896.24,896.24 0,494.98 -401.26,896.24 -896.24,896.24 -494.98,0 -896.24,-401.26 -896.24,-896.24 0,-494.98 401.26,-896.24 896.24,-896.24z"/>
    <path class="fil1 str2" d="M4793.58 3636.93l0 751.93c0,121.65 -13.89,211.91 -41.66,271.07 -27.47,59.46 -78.79,108.07 -153.35,146.1 -74.56,38.04 -169.65,57.05 -285.86,57.05 -116.21,0 -208.58,-17.2 -277.11,-51.31 -68.82,-34.11 -120.14,-82.71 -154.25,-146.1 -34.11,-63.09 -51.31,-155.16 -51.31,-276.81l0 -751.93 306.09 0 0 752.54c0,64.9 5.43,112.9 16.3,143.39 10.87,30.79 32.91,55.24 65.5,73.35 32.6,17.81 73.05,26.87 120.74,26.87 53.13,0 96.3,-8.76 129.5,-26.56 33.2,-17.81 55.54,-41.06 66.41,-70.33 10.87,-29.28 16.3,-78.18 16.3,-146.7l0 -752.54 242.7 0zm1005.57 0l0 1208.04 -245.11 0 -466.67 -815.93c0.6,20.53 1.2,34.11 1.81,40.75 2.41,20.53 3.62,38.04 3.62,52.22l0 722.96 -220.96 0 0 -1208.04 306.09 0 407.51 712.39c-3.62,-35.32 -5.43,-62.19 -5.43,-80.6l0 -631.79 219.15 0zm379.22 0l0 1208.04 -282.54 0 0 -1208.04 282.54 0zm94.86 0l561.76 0c100.52,0 176.29,12.37 227,37.13 50.41,25.06 92.37,60.37 125.27,106.56 32.9,45.88 49.5,102.03 49.5,168.13 0,134.33 -72.44,223.68 -217.34,268.66 83.92,18.72 147,56.15 188.96,112.29 41.96,55.84 62.79,116.82 62.79,182.93 0,90.26 -34.11,168.13 -102.63,233.94 -68.22,65.5 -179.3,98.41 -333.25,98.41l-562.07 0 0 -1208.04zm282.54 213.72l0 264.43 213.11 0c78.18,0 127.38,-15.39 147.61,-46.49 20.22,-30.79 30.49,-60.37 30.49,-88.74 0,-30.79 -8.45,-57.05 -25.05,-79.09 -16.91,-22.33 -35.02,-36.22 -55.24,-41.65 -19.92,-5.74 -59.16,-8.45 -118.02,-8.45l-192.89 0zm0 481.77l0 287.98 216.13 0c73.96,0 126.18,-12.98 156.67,-38.64 30.49,-25.66 45.58,-61.58 45.58,-107.46 0,-38.64 -14.79,-71.84 -44.07,-99.91 -29.28,-28.07 -77.88,-41.96 -145.8,-41.96l-228.51 0zm1701.06 -695.48l0 751.93c0,121.65 -13.89,211.91 -41.66,271.07 -27.47,59.46 -78.79,108.07 -153.35,146.1 -74.56,38.04 -169.65,57.05 -285.86,57.05 -116.21,0 -208.58,-17.2 -277.11,-51.31 -68.82,-34.11 -120.14,-82.71 -154.25,-146.1 -34.11,-63.09 -51.31,-155.16 -51.31,-276.81l0 -751.93 306.09 0 0 752.54c0,64.9 5.43,112.9 16.3,143.39 10.87,30.79 32.91,55.24 65.5,73.35 32.6,17.81 73.05,26.87 120.74,26.87 53.13,0 96.3,-8.76 129.5,-26.56 33.2,-17.81 55.54,-41.06 66.41,-70.33 10.87,-29.28 16.3,-78.18 16.3,-146.7l0 -752.54 242.7 0zm947.61 0l-378.53 699.11 0 508.94 -282.54 0 0 -508.94 -378.53 -699.11 327.82 0 230.32 455.5 227.9 -455.5 253.56 0z"/>
    <path class="fil0 str3" d="M2691.78 3410.93c463.41,0 839.07,375.67 839.07,839.07 0,463.41 -375.67,839.07 -839.07,839.07 -463.41,0 -839.07,-375.67 -839.07,-839.07 0,-463.41 375.67,-839.07 839.07,-839.07z"/>
    <g>
     <path class="fil2 str4" d="M2792.31 4577.83c-2.58,7.76 -5.42,14.95 -8.52,21.56 -18.36,39.76 -52.67,72.25 -102.52,97.68 -49.85,25.43 -113.43,38.15 -191.13,38.15 -77.7,0 -139.46,-11.5 -185.27,-34.31 -46.02,-22.8 -80.29,-55.32 -103.13,-97.68 -22.76,-42.2 -34.31,-103.74 -34.31,-185.07l0 -652.11 204.65 0 0 2.18 0 650.34c0,43.39 3.67,75.47 10.9,95.87 7.3,20.57 22,36.93 43.8,49.04 21.8,11.91 48.84,17.96 80.73,17.96 35.52,0 64.38,-5.85 86.58,-17.76l0.34 -0.18 0.33 -0.18 0.33 -0.19 0.03 -0.01 0.31 -0.17 0.67 -0.37 0.05 -0.03 0.28 -0.16 0.33 -0.19 0.33 -0.19 0.07 -0.04 0.25 -0.15 0.65 -0.37 0.1 -0.06 0.22 -0.13 0.32 -0.19 0.32 -0.19 0.12 -0.07 0.2 -0.12 0.32 -0.19 0.31 -0.19 0.15 -0.09 0.17 -0.11 0.31 -0.19 0.31 -0.19 0.17 -0.1 0.15 -0.09 0.31 -0.19 0.31 -0.2 0.31 -0.19 0.31 -0.2 0.31 -0.2 0.21 -0.13 0.1 -0.06 0.31 -0.2 0.3 -0.2 0.3 -0.2 0.3 -0.2 0.3 -0.2 0.25 -0.17 0.05 -0.03 0.3 -0.2 0.3 -0.2 0.04 -0.03 0.26 -0.17 0.29 -0.2 0.3 -0.2 0.3 -0.2 0.29 -0.2 0.29 -0.2 0.29 -0.2 0.02 -0.01 0.27 -0.2 0.29 -0.2 0.28 -0.21 0.29 -0.21 0.28 -0.21 0.03 -0.02c0.56,-0.41 1.11,-0.83 1.66,-1.24l0.28 -0.21 0.28 -0.21 0.28 -0.21 0.54 -0.43 0.27 -0.21 0.27 -0.22 0.27 -0.22 0.27 -0.22 0.26 -0.22 0 26.95 178.9 0z"/>
     <path class="fil2 str4" d="M3216.14 4731.71l0 -649.85c0,-81.33 -9.41,-141.63 -27.85,-181.24 -18.49,-39.7 -52.68,-72.25 -102.53,-97.68 -49.85,-25.43 -113.43,-38.15 -191.13,-38.15 -77.7,0 -139.46,11.5 -185.27,34.31 -46.02,22.8 -80.33,55.3 -103.13,97.68 -3.98,7.37 -7.62,15.33 -10.91,23.89l217.22 0 0 28.79c5.51,-4.74 11.76,-9.05 18.73,-12.92 21.8,-11.91 48.84,-17.96 80.73,-17.96 35.52,0 64.38,5.85 86.58,17.76 22.2,11.91 37.14,27.45 44.4,47.02 7.27,19.58 10.9,52.28 10.9,98.09l0 650.26 162.27 0z"/>
    </g>
   </g>
  </g>
 </g>
</svg>
